<svg xmlns="http://www.w3.org/2000/svg" width="52.92mm" height="13.32mm" viewBox="0 0 150 37.76"><path d="M30.68,7.44c-1.56.6-3.61.67-4.83,1.76a6.28,6.28,0,0,0-2.21,4.09c-.17,1.1.24,7.47-.38,8.69a5.28,5.28,0,0,1-2,2.31,4.29,4.29,0,0,1-5.28-1.18c-1.23-1.6-.95-3-.95-4.89,0-2.7.14-6.54-.82-8.11A7.56,7.56,0,0,0,10.36,6.8,5.43,5.43,0,0,1,6.92,0s-5,9.9-5.58,10.86A10.11,10.11,0,0,0,0,14.69a5.23,5.23,0,0,0,2.72,4.93c1.81,1.1,5,2.65,5.86,6a52.62,52.62,0,0,1,.19,5.92c0,2.63.77,5.68,4.64,5.9a4,4,0,0,0,3.4-1.88,29.47,29.47,0,0,0,1.83-3.3C19.78,30.14,20.9,28.15,22,26c2.26-4.21,4.64-8.41,6.89-12.62,1.26-2.18,2.92-5.43,4.33-8.15A6.57,6.57,0,0,1,30.68,7.44Z" fill="#0074be"/><path d="M46.7,18.75H33.24v4h4.67v14.7h4V22.78H46.7Z" fill="#231815"/><path d="M90.51,25.34h0v4h9.15v-4H90.51Z" fill="#231815"/><path d="M62.87,33.56H61.68a1.17,1.17,0,0,1-.8-.32,3.76,3.76,0,0,1-.81-1.56c-.18-.49-4.17-11.39-4.27-11.6a3.5,3.5,0,0,0-3-1.77h0a3.38,3.38,0,0,0-3,1.77c-.11.21-4.09,11.11-4.28,11.6a3.63,3.63,0,0,1-.8,1.56,1.21,1.21,0,0,1-.81.32H42.62v3.92h1.65a5.11,5.11,0,0,0,1.9-.3,5.5,5.5,0,0,0,2.5-2.73c.09-.2,4-10.87,4.11-11.24.11.37,4,11,4.06,11.24a5.64,5.64,0,0,0,2.55,2.73,4.17,4.17,0,0,0,1.9.3h5.6V18.74h-4Z" fill="#231815"/><polygon points="84.4 33.48 80.9 33.48 76.91 28.06 80.91 22.69 83.54 22.69 83.54 18.74 78.91 18.74 72.27 27.8 72.27 18.75 68.19 18.75 68.19 37.48 72.27 37.48 72.27 28.3 78.67 37.47 78.67 37.48 78.67 37.48 78.68 37.48 78.68 37.48 84.4 37.48 84.59 37.48 88.49 37.48 88.49 18.75 84.4 18.75 84.4 33.48" fill="#231815"/><path d="M148.38,33.56a1.21,1.21,0,0,1-.81-.32,3.74,3.74,0,0,1-.8-1.56c-.18-.49-4.17-11.39-4.27-11.6a3.52,3.52,0,0,0-3-1.77h0a3.39,3.39,0,0,0-3,1.77c-.1.21-4.09,11.11-4.27,11.6a3.65,3.65,0,0,1-.81,1.56,1.17,1.17,0,0,1-.8.32h-1.7V18.75h-4.15v7.41h-6.08V18.75h-4.15v0H107c-3,0-5.26,2.92-5.26,5.78a5.57,5.57,0,0,0,5.64,5.64,1.79,1.79,0,1,1-1.67,2.13l-3.67,1.16a5.78,5.78,0,1,0,10.58-4.42,6.26,6.26,0,0,0-5.17-2.94,1.81,1.81,0,0,1-1.7-1.79,1.7,1.7,0,0,1,1.7-1.71h7V37.48h4.15V30.11h6.08v7.37H131a5.05,5.05,0,0,0,1.9-.3,5.52,5.52,0,0,0,2.51-2.73c.09-.2,4-10.87,4.1-11.24.12.37,4,11,4.07,11.24a5.55,5.55,0,0,0,2.55,2.73,4.15,4.15,0,0,0,1.89.3h2V33.56Z" fill="#231815"/></svg>