<svg xmlns="http://www.w3.org/2000/svg" width="724.75" height="226.81" viewBox="0 0 724.75 226.81"><path d="M185.93,45.08c-9.46,3.63-21.85,4-29.24,10.67-8.55,7.68-11.73,14.59-13.4,24.77-1.08,6.62,1.42,45.23-2.34,52.63-2.5,4.91-6.83,11.3-12.34,14a26,26,0,0,1-32-7.19c-7.47-9.67-5.74-18.38-5.74-29.58,0-16.38.79-39.64-5-49.15-4.33-7.11-10.32-14.7-23.1-20C44,33.39,37,16.6,41.9,0,41.84,0,11.28,60,8.07,65.8,5.07,71.13.57,80.56.07,89c-1,15.71,8.36,24.9,16.5,29.86C27.5,125.51,46.75,135,52.09,155.19,53.62,161,53.24,191,53.24,191c0,15.94,4.64,34.44,28.1,35.75,8.45.47,15-4.07,20.61-11.4,4.58-6,7.43-13.49,11.11-20,6.86-12.79,13.66-24.85,20.52-37.64,13.68-25.5,28.11-50.93,41.79-76.43,7.65-13.23,17.71-32.92,26.2-49.38C201.48,31.93,195,41.61,185.93,45.08Z" fill="#0074be"/><path d="M365.55,205.91h-8.33c-10.68,0-13.16.6-22.15-9.39-12.39-13.77-20.19-22.36-25.8-29.16-8.52-10.35-13.11-17.89-13.11-27.64H364V120.28H294.81V90.64H270v29.64H201.82v19.49H267c0,8.14-1.59,11.92-7.58,20.41-10.09,14.32-22.86,30.94-31.44,39.49-7.95,7.92-12.7,7.18-17.93,7.18h-8.35v19.92h9.82c18.19,0,24.9-5.63,31.32-12.89,3.31-3.13,15.05-16.87,18.84-21.47,3.28-3.77,16.71-19.61,20.19-31l.08-.15.06.4c1.4,10.36,12.7,21.49,19.81,29.54,6.93,7.85,15.29,16.9,20.76,22.48,11.73,11.94,20.86,13,30.21,13h12.73Z"/><path d="M414.74,115.25H516.25V101.62H423.3a112.11,112.11,0,0,0,4.08-10.93H408.9c-4.64,13.29-17.56,27.16-35.71,30.52v16.34A68.81,68.81,0,0,0,405.62,124v10.52H516.25V120.91H409.33A59,59,0,0,0,414.74,115.25Z"/><path d="M520.31,204.1c-2.37,0-4.06-1.42-4.06-3.31V140.31h-143v14.4H492v48.55c0,10.41,8,20.13,21,20.13h19.8V204.1Z"/><path d="M456.81,191.62c11-9.82,19.41-20.58,23.95-30.79H457.37A103.31,103.31,0,0,1,438,181c-16.83-8.8-35.23-16.58-52.64-21.56v17.48a281.07,281.07,0,0,1,35.12,15.74c-14.31,7.9-29.12,12.07-40.88,13.26l.05,20.9c22.2-2.16,43.43-11.12,60.92-22.64,11.57,7.22,20.85,14.19,25.17,19.24h30.22C489.37,214.27,474.9,202.77,456.81,191.62Z"/><rect x="547.12" y="105.46" width="84" height="17.32"/><path d="M631.12,135.89h-84v16.88h12.32v45.7c0,2.78-2.22,5.62-6.86,5.62h-5.51v18.68h11.86c11.09,0,19.69-11.41,19.69-19.12V152.77h4.53v73.91h21.58V152.77h4.54V205c0,4.84,5.61,16.06,18.17,17V152.77h3.72Z"/><polygon points="724.75 152.74 724.75 135.89 690.28 135.89 690.28 90.67 667.57 90.67 667.57 135.89 635.43 135.89 635.43 152.74 667.57 152.74 667.57 203.1 630.6 203.1 630.6 221.05 724.75 221.05 724.75 203.1 690.28 203.1 690.28 152.74 724.75 152.74"/></svg>